<svg width="326" height="43" viewBox="0 0 326 43" fill="none" xmlns="http://www.w3.org/2000/svg">
<rect y="14.8848" width="13.2308" height="13.2308" rx="2" fill="#BFDBFE"/>
<rect x="14.8848" y="14.8848" width="13.2308" height="13.2308" rx="2" fill="#BFDBFE"/>
<rect x="29.769" y="14.8848" width="13.2308" height="13.2308" rx="2" fill="#BFDBFE"/>
<rect y="29.769" width="13.2308" height="13.2308" rx="2" fill="#BFDBFE"/>
<rect x="14.8848" y="29.769" width="13.2308" height="13.2308" rx="2" fill="#BFDBFE"/>
<rect x="14.8848" width="13.2308" height="13.2308" rx="2" fill="#BFDBFE"/>
<rect x="29.769" y="29.769" width="13.2308" height="13.2308" rx="2" fill="#3B82F6"/>
<rect x="29.769" width="13.2308" height="13.2308" rx="2" fill="#BFDBFE"/>
<path d="M315.653 31.1047C314.349 31.1047 313.194 30.8645 312.188 30.3842C311.204 29.9039 310.426 29.2521 309.855 28.4287C309.306 27.5825 309.031 26.6219 309.031 25.5469C309.031 24.3118 309.351 23.3398 309.992 22.6308C310.632 21.9218 311.661 21.4186 313.08 21.1212C314.498 20.801 316.384 20.6409 318.74 20.6409H320.627V23.5228H318.74C317.848 23.5228 317.105 23.5914 316.51 23.7286C315.938 23.843 315.515 24.0374 315.241 24.3118C314.966 24.5634 314.829 24.8951 314.829 25.3067C314.829 25.8328 315.012 26.2673 315.378 26.6104C315.767 26.9535 316.316 27.125 317.025 27.125C317.597 27.125 318.1 26.9992 318.534 26.7477C318.992 26.4961 319.358 26.153 319.632 25.7184C319.907 25.261 320.044 24.735 320.044 24.1403V20.1606C320.044 19.3373 319.827 18.754 319.392 18.411C318.98 18.0679 318.26 17.8964 317.231 17.8964C316.682 17.8964 316.064 17.965 315.378 18.1022C314.692 18.2166 313.926 18.4338 313.08 18.754C312.462 18.9828 311.936 19.0171 311.501 18.857C311.067 18.6969 310.724 18.4224 310.472 18.0336C310.243 17.6448 310.129 17.2216 310.129 16.7642C310.152 16.3068 310.301 15.8722 310.575 15.4605C310.872 15.0488 311.318 14.7286 311.913 14.4999C313.011 14.0882 314.017 13.8138 314.932 13.6765C315.87 13.5393 316.728 13.4707 317.505 13.4707C319.381 13.4707 320.924 13.7452 322.137 14.2941C323.372 14.8201 324.287 15.6435 324.881 16.7642C325.499 17.862 325.808 19.2801 325.808 21.0183V27.9484C325.808 28.9548 325.567 29.721 325.087 30.247C324.607 30.7731 323.909 31.0361 322.994 31.0361C322.057 31.0361 321.336 30.7731 320.833 30.247C320.353 29.721 320.113 28.9548 320.113 27.9484V27.0564L320.318 27.5367C320.204 28.2686 319.941 28.8976 319.529 29.4236C319.118 29.9497 318.58 30.3614 317.917 30.6587C317.254 30.956 316.499 31.1047 315.653 31.1047Z" fill="#272727"/>
<path d="M304.03 31.1046C302.314 31.1046 300.896 30.8416 299.776 30.3156C298.678 29.7895 297.854 29.0004 297.306 27.9483C296.757 26.8734 296.482 25.5354 296.482 23.9344V18.3423H295.316C294.584 18.3423 294.012 18.1479 293.6 17.7591C293.212 17.3702 293.017 16.8099 293.017 16.078C293.017 15.3461 293.212 14.7972 293.6 14.4312C294.012 14.0424 294.584 13.848 295.316 13.848H296.482V11.721C296.482 10.7146 296.745 9.94842 297.271 9.42237C297.797 8.89632 298.552 8.6333 299.536 8.6333C300.519 8.6333 301.274 8.89632 301.8 9.42237C302.326 9.94842 302.589 10.7146 302.589 11.721V13.848H305.402C306.157 13.848 306.729 14.0424 307.117 14.4312C307.529 14.7972 307.735 15.3461 307.735 16.078C307.735 16.8099 307.529 17.3702 307.117 17.7591C306.729 18.1479 306.157 18.3423 305.402 18.3423H302.589V23.7285C302.589 24.5748 302.783 25.2038 303.172 25.6154C303.584 26.0043 304.224 26.1987 305.093 26.1987C305.414 26.1987 305.722 26.1644 306.02 26.0958C306.317 26.0271 306.591 25.9928 306.843 25.9928C307.209 25.97 307.506 26.0843 307.735 26.3359C307.964 26.5646 308.078 27.1021 308.078 27.9483C308.078 28.6345 307.975 29.2177 307.769 29.698C307.563 30.1555 307.197 30.4871 306.671 30.6929C306.351 30.8073 305.917 30.8988 305.368 30.9674C304.819 31.0589 304.373 31.1046 304.03 31.1046Z" fill="#272727"/>
<path d="M290.27 31.1048C288.074 31.1048 286.45 30.5215 285.398 29.3551C284.369 28.1658 283.854 26.3818 283.854 24.0031V9.3196C283.854 8.31325 284.118 7.54705 284.644 7.021C285.17 6.49496 285.913 6.23193 286.874 6.23193C287.857 6.23193 288.612 6.49496 289.138 7.021C289.687 7.54705 289.961 8.31325 289.961 9.3196V23.7973C289.961 24.6436 290.121 25.2611 290.442 25.6499C290.785 26.0387 291.219 26.2331 291.745 26.2331C291.905 26.2331 292.065 26.2217 292.225 26.1988C292.408 26.1531 292.603 26.1188 292.809 26.0959C293.198 26.0959 293.483 26.2446 293.666 26.5419C293.872 26.8392 293.975 27.4453 293.975 28.3602C293.975 29.1607 293.815 29.7668 293.495 30.1785C293.175 30.5673 292.683 30.8189 292.02 30.9332C291.837 30.9561 291.574 30.9904 291.231 31.0362C290.888 31.0819 290.567 31.1048 290.27 31.1048Z" fill="#272727"/>
<path d="M269.563 31.1044C268.099 31.1044 266.898 30.8414 265.961 30.3154C265.023 29.7664 264.314 28.9545 263.834 27.8795C263.376 26.8046 263.147 25.4437 263.147 23.797V16.5924C263.147 15.5861 263.41 14.8313 263.937 14.3281C264.463 13.8021 265.217 13.5391 266.201 13.5391C267.184 13.5391 267.939 13.8021 268.465 14.3281C268.991 14.8313 269.254 15.5861 269.254 16.5924V23.9685C269.254 24.7919 269.426 25.4094 269.769 25.8211C270.112 26.2328 270.649 26.4386 271.381 26.4386C272.205 26.4386 272.879 26.1413 273.405 25.5466C273.931 24.952 274.194 24.1629 274.194 23.1794V16.5924C274.194 15.5861 274.457 14.8313 274.983 14.3281C275.51 13.8021 276.264 13.5391 277.248 13.5391C278.231 13.5391 278.986 13.8021 279.512 14.3281C280.038 14.8313 280.301 15.5861 280.301 16.5924V27.9482C280.301 30.0066 279.318 31.0358 277.351 31.0358C276.39 31.0358 275.647 30.7728 275.121 30.2467C274.595 29.7207 274.332 28.9545 274.332 27.9482V25.9583L274.881 27.6394C274.377 28.7601 273.668 29.6178 272.754 30.2124C271.862 30.8071 270.798 31.1044 269.563 31.1044Z" fill="#272727"/>
<path d="M252.955 31.1047C251.948 31.1047 250.919 31.0246 249.867 30.8645C248.838 30.7273 247.9 30.4643 247.054 30.0755C246.482 29.8468 246.07 29.538 245.819 29.1492C245.59 28.7604 245.476 28.3487 245.476 27.9141C245.498 27.4795 245.624 27.0907 245.853 26.7477C246.105 26.3817 246.425 26.1301 246.814 25.9929C247.225 25.8328 247.683 25.8442 248.186 26.0272C249.146 26.3703 250.004 26.6219 250.759 26.782C251.537 26.9192 252.28 26.9878 252.989 26.9878C253.835 26.9878 254.441 26.8734 254.807 26.6447C255.173 26.3931 255.356 26.0729 255.356 25.6841C255.356 25.3411 255.23 25.078 254.979 24.8951C254.75 24.7121 254.418 24.5863 253.984 24.5177L250.176 23.9001C248.758 23.6486 247.66 23.1339 246.882 22.3563C246.105 21.5558 245.716 20.5151 245.716 19.2343C245.716 18.045 246.047 17.0272 246.711 16.181C247.397 15.3119 248.323 14.6486 249.49 14.1912C250.679 13.7109 252.04 13.4707 253.572 13.4707C254.601 13.4707 255.539 13.5508 256.385 13.7109C257.232 13.8481 258.055 14.1111 258.855 14.4999C259.359 14.7058 259.713 15.0031 259.919 15.3919C260.125 15.7807 260.205 16.1924 260.159 16.627C260.113 17.0387 259.965 17.4275 259.713 17.7934C259.484 18.1365 259.164 18.3767 258.753 18.5139C258.341 18.6282 257.861 18.5939 257.312 18.411C256.557 18.1136 255.882 17.8964 255.287 17.7591C254.716 17.6219 254.178 17.5533 253.675 17.5533C252.737 17.5533 252.074 17.6791 251.685 17.9307C251.296 18.1822 251.102 18.5024 251.102 18.8913C251.102 19.1886 251.205 19.4402 251.411 19.646C251.617 19.829 251.937 19.9548 252.371 20.0234L256.179 20.6753C257.643 20.904 258.764 21.4071 259.542 22.1848C260.342 22.9395 260.742 23.9688 260.742 25.2724C260.742 27.125 260.033 28.5659 258.615 29.5952C257.197 30.6015 255.31 31.1047 252.955 31.1047Z" fill="#272727"/>
<path d="M228.444 31.0361C227.483 31.0361 226.74 30.773 226.214 30.247C225.688 29.721 225.425 28.9548 225.425 27.9484V16.5927C225.425 15.6092 225.676 14.8544 226.18 14.3284C226.706 13.8023 227.449 13.5393 228.41 13.5393C229.37 13.5393 230.102 13.8023 230.605 14.3284C231.108 14.8544 231.36 15.6092 231.36 16.5927V18.2051L230.983 16.7985C231.532 15.7236 232.309 14.9002 233.315 14.3284C234.345 13.7566 235.511 13.4707 236.815 13.4707C238.164 13.4707 239.274 13.7337 240.143 14.2598C241.012 14.7629 241.664 15.5635 242.098 16.6613C242.533 17.7363 242.75 19.0971 242.75 20.7439V27.9484C242.75 28.9548 242.487 29.721 241.961 30.247C241.435 30.773 240.68 31.0361 239.697 31.0361C238.713 31.0361 237.958 30.773 237.432 30.247C236.906 29.721 236.643 28.9548 236.643 27.9484V20.984C236.643 19.9548 236.46 19.2229 236.094 18.7883C235.751 18.3538 235.237 18.1365 234.551 18.1365C233.636 18.1365 232.904 18.4338 232.355 19.0285C231.806 19.6003 231.532 20.3779 231.532 21.3614V27.9484C231.532 30.0069 230.502 31.0361 228.444 31.0361Z" fill="#272727"/>
<path d="M213.33 31.1047C211.454 31.1047 209.819 30.7502 208.424 30.0412C207.029 29.3321 205.942 28.3144 205.164 26.9878C204.387 25.6613 203.998 24.0946 203.998 22.2877C203.998 20.9154 204.215 19.6918 204.65 18.6168C205.084 17.519 205.713 16.5927 206.537 15.8379C207.36 15.0603 208.344 14.4771 209.487 14.0882C210.631 13.6765 211.912 13.4707 213.33 13.4707C215.205 13.4707 216.84 13.8252 218.236 14.5342C219.631 15.2432 220.706 16.261 221.46 17.5876C222.238 18.8913 222.627 20.458 222.627 22.2877C222.627 23.6371 222.41 24.8607 221.975 25.9586C221.541 27.0564 220.912 27.9942 220.088 28.7718C219.288 29.5266 218.304 30.1098 217.138 30.5215C215.994 30.9103 214.725 31.1047 213.33 31.1047ZM213.33 26.6104C213.947 26.6104 214.496 26.4618 214.976 26.1644C215.457 25.8442 215.823 25.3754 216.074 24.7578C216.349 24.1174 216.486 23.294 216.486 22.2877C216.486 20.7553 216.189 19.6575 215.594 18.9942C214.999 18.308 214.245 17.965 213.33 17.965C212.712 17.965 212.163 18.1136 211.683 18.411C211.203 18.7083 210.825 19.1772 210.551 19.8176C210.276 20.4351 210.139 21.2585 210.139 22.2877C210.139 23.7972 210.436 24.8951 211.031 25.5812C211.626 26.2674 212.392 26.6104 213.33 26.6104Z" fill="#272727"/>
<path d="M194.998 31.1045C192.322 31.1045 190.024 30.5899 188.103 29.5607C186.181 28.5315 184.706 27.0791 183.677 25.2037C182.671 23.3282 182.167 21.1325 182.167 18.6167C182.167 16.7412 182.453 15.0373 183.025 13.5049C183.62 11.9725 184.466 10.6574 185.564 9.55951C186.685 8.46168 188.034 7.62687 189.612 7.05508C191.213 6.46042 193.009 6.16309 194.998 6.16309C196.051 6.16309 197.137 6.28888 198.258 6.54047C199.401 6.76918 200.408 7.12369 201.277 7.60399C201.917 7.94707 202.363 8.38163 202.615 8.90767C202.866 9.43372 202.946 9.9712 202.855 10.5201C202.786 11.069 202.592 11.5608 202.272 11.9953C201.951 12.4299 201.54 12.7272 201.037 12.8873C200.533 13.0246 199.984 12.9445 199.39 12.6472C198.704 12.327 198.017 12.0868 197.331 11.9267C196.668 11.7437 195.97 11.6523 195.239 11.6523C193.821 11.6523 192.631 11.9267 191.671 12.4756C190.733 13.0017 190.024 13.7793 189.544 14.8085C189.063 15.8378 188.823 17.1071 188.823 18.6167C188.823 20.1262 189.063 21.407 189.544 22.4591C190.024 23.4883 190.733 24.2774 191.671 24.8263C192.631 25.3523 193.821 25.6154 195.239 25.6154C195.833 25.6154 196.474 25.5467 197.16 25.4095C197.846 25.2494 198.521 25.0093 199.184 24.6891C199.87 24.3917 200.476 24.3117 201.002 24.4489C201.551 24.5861 201.986 24.8606 202.306 25.2723C202.649 25.684 202.866 26.1643 202.958 26.7132C203.049 27.2392 202.969 27.7653 202.718 28.2913C202.489 28.8174 202.077 29.2405 201.483 29.5607C200.682 30.041 199.687 30.4184 198.498 30.6928C197.331 30.9673 196.165 31.1045 194.998 31.1045Z" fill="#272727"/>
<path d="M168.741 31.1047C167.437 31.1047 166.282 30.8645 165.276 30.3842C164.292 29.9039 163.515 29.2521 162.943 28.4287C162.394 27.5825 162.12 26.6219 162.12 25.5469C162.12 24.3118 162.44 23.3398 163.08 22.6308C163.721 21.9218 164.75 21.4186 166.168 21.1212C167.586 20.801 169.473 20.6409 171.829 20.6409H173.716V23.5228H171.829C170.937 23.5228 170.193 23.5914 169.599 23.7286C169.027 23.843 168.604 24.0374 168.329 24.3118C168.055 24.5634 167.918 24.8951 167.918 25.3067C167.918 25.8328 168.101 26.2673 168.466 26.6104C168.855 26.9535 169.404 27.125 170.113 27.125C170.685 27.125 171.188 26.9992 171.623 26.7477C172.08 26.4961 172.446 26.153 172.721 25.7184C172.995 25.261 173.132 24.735 173.132 24.1403V20.1606C173.132 19.3373 172.915 18.754 172.48 18.411C172.069 18.0679 171.348 17.8964 170.319 17.8964C169.77 17.8964 169.153 17.965 168.466 18.1022C167.78 18.2166 167.014 18.4338 166.168 18.754C165.55 18.9828 165.024 19.0171 164.59 18.857C164.155 18.6969 163.812 18.4224 163.561 18.0336C163.332 17.6448 163.217 17.2216 163.217 16.7642C163.24 16.3068 163.389 15.8722 163.663 15.4605C163.961 15.0488 164.407 14.7286 165.001 14.4999C166.099 14.0882 167.106 13.8138 168.02 13.6765C168.958 13.5393 169.816 13.4707 170.594 13.4707C172.469 13.4707 174.013 13.7452 175.225 14.2941C176.46 14.8201 177.375 15.6435 177.97 16.7642C178.587 17.862 178.896 19.2801 178.896 21.0183V27.9484C178.896 28.9548 178.656 29.721 178.175 30.247C177.695 30.7731 176.998 31.0361 176.083 31.0361C175.145 31.0361 174.425 30.7731 173.921 30.247C173.441 29.721 173.201 28.9548 173.201 27.9484V27.0564L173.407 27.5367C173.292 28.2686 173.029 28.8976 172.618 29.4236C172.206 29.9497 171.669 30.3614 171.005 30.6587C170.342 30.956 169.587 31.1047 168.741 31.1047Z" fill="#272727"/>
<path d="M148.187 31.1048C146.746 31.1048 145.465 30.7503 144.344 30.0412C143.246 29.3322 142.377 28.3144 141.737 26.9879C141.119 25.6613 140.811 24.0946 140.811 22.2878C140.811 20.4352 141.119 18.857 141.737 17.5534C142.377 16.2497 143.246 15.2433 144.344 14.5343C145.465 13.8253 146.746 13.4708 148.187 13.4708C149.445 13.4708 150.577 13.7681 151.583 14.3628C152.589 14.9574 153.264 15.7236 153.607 16.6614H153.23V9.3196C153.23 8.31325 153.493 7.54705 154.019 7.021C154.545 6.49496 155.3 6.23193 156.283 6.23193C157.244 6.23193 157.987 6.49496 158.513 7.021C159.062 7.54705 159.337 8.31325 159.337 9.3196V27.9485C159.337 28.9548 159.074 29.721 158.547 30.2471C158.044 30.7731 157.301 31.0362 156.317 31.0362C155.357 31.0362 154.614 30.7731 154.087 30.2471C153.561 29.721 153.298 28.9548 153.298 27.9485V25.993L153.676 27.674C153.356 28.7033 152.681 29.5381 151.652 30.1785C150.645 30.796 149.49 31.1048 148.187 31.1048ZM150.142 26.6105C150.76 26.6105 151.309 26.4618 151.789 26.1645C152.269 25.8443 152.635 25.3754 152.887 24.7579C153.161 24.1175 153.298 23.2941 153.298 22.2878C153.298 20.7554 153.001 19.6575 152.406 18.9943C151.812 18.3081 151.057 17.9651 150.142 17.9651C149.525 17.9651 148.976 18.1137 148.495 18.411C148.015 18.7084 147.638 19.1772 147.363 19.8177C147.089 20.4352 146.952 21.2586 146.952 22.2878C146.952 23.7973 147.249 24.8951 147.844 25.5813C148.438 26.2674 149.204 26.6105 150.142 26.6105Z" fill="#272727"/>
<path d="M123.813 31.0361C122.852 31.0361 122.109 30.773 121.583 30.247C121.057 29.721 120.794 28.9548 120.794 27.9484V16.5927C120.794 15.6092 121.046 14.8544 121.549 14.3284C122.075 13.8023 122.818 13.5393 123.779 13.5393C124.739 13.5393 125.471 13.8023 125.974 14.3284C126.478 14.8544 126.729 15.6092 126.729 16.5927V18.2051L126.352 16.7985C126.901 15.7236 127.678 14.9002 128.685 14.3284C129.714 13.7566 130.88 13.4707 132.184 13.4707C133.533 13.4707 134.643 13.7337 135.512 14.2598C136.381 14.7629 137.033 15.5635 137.467 16.6613C137.902 17.7363 138.119 19.0971 138.119 20.7439V27.9484C138.119 28.9548 137.856 29.721 137.33 30.247C136.804 30.773 136.049 31.0361 135.066 31.0361C134.082 31.0361 133.328 30.773 132.802 30.247C132.275 29.721 132.012 28.9548 132.012 27.9484V20.984C132.012 19.9548 131.829 19.2229 131.464 18.7883C131.12 18.3538 130.606 18.1365 129.92 18.1365C129.005 18.1365 128.273 18.4338 127.724 19.0285C127.175 19.6003 126.901 20.3779 126.901 21.3614V27.9484C126.901 30.0069 125.871 31.0361 123.813 31.0361Z" fill="#272727"/>
<path d="M110.959 31.1047C108.9 31.1047 107.116 30.7502 105.607 30.0412C104.12 29.3093 102.976 28.2801 102.176 26.9535C101.375 25.6269 100.975 24.0602 100.975 22.2534C100.975 20.5151 101.352 18.9942 102.107 17.6905C102.885 16.364 103.937 15.3347 105.264 14.6028C106.613 13.8481 108.145 13.4707 109.861 13.4707C111.119 13.4707 112.262 13.6765 113.291 14.0882C114.321 14.4771 115.201 15.0603 115.933 15.8379C116.665 16.5927 117.214 17.5075 117.58 18.5825C117.969 19.6575 118.163 20.8582 118.163 22.1848C118.163 22.6422 118.037 22.9853 117.786 23.214C117.534 23.4198 117.134 23.5228 116.585 23.5228H106.087V20.6409H113.703L113.154 21.0869C113.154 20.2407 113.04 19.5545 112.811 19.0285C112.582 18.5025 112.239 18.1022 111.782 17.8277C111.347 17.5533 110.798 17.4161 110.135 17.4161C109.426 17.4161 108.809 17.5876 108.283 17.9307C107.779 18.2509 107.391 18.7312 107.116 19.3716C106.842 20.012 106.704 20.8125 106.704 21.7731V22.0819C106.704 23.7057 107.059 24.8722 107.768 25.5812C108.5 26.2674 109.621 26.6104 111.13 26.6104C111.633 26.6104 112.205 26.5532 112.845 26.4389C113.509 26.3017 114.138 26.1187 114.732 25.89C115.327 25.6613 115.842 25.6269 116.276 25.787C116.711 25.9243 117.042 26.1759 117.271 26.5418C117.523 26.8849 117.66 27.2851 117.683 27.7426C117.706 28.1771 117.603 28.6117 117.374 29.0462C117.145 29.4579 116.768 29.7781 116.242 30.0069C115.441 30.3728 114.584 30.6473 113.669 30.8302C112.777 31.0132 111.873 31.1047 110.959 31.1047Z" fill="#272727"/>
<path d="M88.6596 37.28C87.4016 37.28 86.2238 37.1885 85.1259 37.0056C84.0281 36.8455 83.0789 36.6053 82.2784 36.2851C81.6151 36.0564 81.1463 35.7247 80.8718 35.2902C80.5973 34.8556 80.4716 34.3982 80.4944 33.9179C80.5173 33.4376 80.6431 33.003 80.8718 32.6142C81.1234 32.2254 81.455 31.9395 81.8667 31.7565C82.2784 31.5964 82.7358 31.6079 83.239 31.7908C84.2454 32.2025 85.1602 32.4655 85.9836 32.5799C86.807 32.7171 87.5046 32.7858 88.0764 32.7858C89.4715 32.7858 90.5122 32.4884 91.1983 31.8938C91.9073 31.322 92.2619 30.4185 92.2619 29.1835V27.0221H92.5363C92.1932 27.9827 91.4957 28.7718 90.4436 29.3893C89.3915 29.984 88.2479 30.2813 87.0128 30.2813C85.5033 30.2813 84.1882 29.9382 83.0675 29.2521C81.9468 28.5431 81.0662 27.5596 80.4258 26.3017C79.8083 25.0437 79.4995 23.5685 79.4995 21.876C79.4995 20.5952 79.6825 19.4402 80.0484 18.411C80.4144 17.3817 80.9176 16.5012 81.558 15.7693C82.2212 15.0374 83.0103 14.4771 83.9252 14.0882C84.8629 13.6765 85.8921 13.4707 87.0128 13.4707C88.2936 13.4707 89.4372 13.768 90.4436 14.3627C91.4728 14.9574 92.1589 15.735 92.502 16.6956L92.1589 18.1022V16.5927C92.1589 15.6092 92.422 14.8544 92.948 14.3284C93.4969 13.8023 94.2517 13.5393 95.2123 13.5393C96.1729 13.5393 96.9048 13.8023 97.408 14.3284C97.934 14.8544 98.197 15.6092 98.197 16.5927V28.463C98.197 31.3906 97.3736 33.5863 95.7269 35.05C94.0801 36.5367 91.7244 37.28 88.6596 37.28ZM88.8997 25.787C89.5859 25.787 90.1691 25.6384 90.6494 25.3411C91.1297 25.0209 91.5071 24.5749 91.7815 24.0031C92.056 23.4084 92.1932 22.6994 92.1932 21.876C92.1932 20.6409 91.8959 19.6803 91.3012 18.9942C90.7066 18.308 89.9061 17.965 88.8997 17.965C88.2593 17.965 87.6875 18.1251 87.1844 18.4453C86.6812 18.7426 86.2924 19.1886 86.0179 19.7833C85.7663 20.355 85.6405 21.0526 85.6405 21.876C85.6405 23.1111 85.9379 24.0717 86.5325 24.7578C87.1272 25.444 87.9163 25.787 88.8997 25.787Z" fill="#272727"/>
<path d="M55.8339 31.0362C55.1249 31.0362 54.5302 30.8761 54.0499 30.5559C53.5696 30.2128 53.2723 29.7554 53.1579 29.1836C53.0436 28.5889 53.1465 27.9256 53.4667 27.1937L62.0092 8.80499C62.4209 7.91299 62.9241 7.26115 63.5188 6.84947C64.1363 6.43778 64.8339 6.23193 65.6115 6.23193C66.3891 6.23193 67.0639 6.43778 67.6356 6.84947C68.2303 7.26115 68.7449 7.91299 69.1795 8.80499L77.722 27.1937C78.088 27.9256 78.2137 28.5889 78.0994 29.1836C78.0079 29.7782 77.722 30.2357 77.2417 30.5559C76.7843 30.8761 76.2125 31.0362 75.5263 31.0362C74.6115 31.0362 73.9025 30.8303 73.3993 30.4186C72.919 30.0069 72.4844 29.3437 72.0956 28.4288L70.243 24.0718L72.6445 25.8214H58.5099L60.9457 24.0718L59.0931 28.4288C58.6814 29.3437 58.2583 30.0069 57.8237 30.4186C57.3892 30.8303 56.7259 31.0362 55.8339 31.0362ZM65.5429 13.1277L61.5632 22.6309L60.6026 20.9841H70.5861L69.6255 22.6309L65.6115 13.1277H65.5429Z" fill="#272727"/>
</svg>
